<?xml version="1.0" standalone="no"?>
<!DOCTYPE svg PUBLIC "-//W3C//DTD SVG 20010904//EN"
 "http://www.w3.org/TR/2001/REC-SVG-20010904/DTD/svg10.dtd">
<svg version="1.0" xmlns="http://www.w3.org/2000/svg"
 width="225.000000pt" height="225.000000pt" viewBox="0 0 225.000000 225.000000"
 preserveAspectRatio="xMidYMid meet">
<metadata>
Created by potrace 1.14, written by Peter Selinger 2001-2017
</metadata>
<g transform="translate(0.000000,225.000000) scale(0.100000,-0.100000)"
fill="#000000" stroke="none">
<path d="M1595 1707 c-81 -33 -135 -84 -135 -127 0 -12 -15 -40 -32 -63 -18
-23 -38 -51 -44 -62 -14 -25 -69 -30 -175 -16 -61 8 -89 7 -140 -5 -172 -41
-189 -52 -227 -150 -22 -57 -26 -61 -98 -99 -42 -22 -92 -54 -112 -71 -21 -17
-62 -47 -94 -67 -31 -19 -77 -56 -103 -81 -45 -43 -47 -48 -42 -86 11 -81 52
-95 148 -51 79 37 164 85 207 117 54 42 36 20 -40 -46 -80 -69 -168 -179 -168
-209 0 -62 55 -107 111 -91 28 8 171 109 184 129 9 16 25 13 25 -4 0 -23 79
-76 105 -69 15 4 31 -4 54 -25 48 -45 79 -41 145 18 43 39 59 48 79 44 49 -9
156 88 285 257 70 92 168 175 215 183 54 8 94 41 108 87 10 33 9 49 -10 112
-43 137 -174 389 -203 387 -7 0 -26 -6 -43 -12z m-8 -274 c87 -108 136 -192
123 -212 -7 -12 -30 7 -102 81 -51 52 -111 109 -133 126 l-39 32 29 30 c16 16
34 30 40 30 7 0 43 -39 82 -87z m-337 -48 c55 -14 118 -11 171 10 10 4 44 -19
100 -69 91 -81 96 -87 124 -130 l19 -28 -74 -72 c-41 -39 -106 -114 -146 -166
-68 -90 -160 -180 -183 -180 -6 0 -20 6 -32 13 -17 10 -22 9 -31 -8 -21 -38
-95 -105 -116 -105 -12 0 -28 10 -36 21 -16 24 -10 38 46 109 33 41 35 50 9
50 -10 0 -31 -18 -47 -41 -55 -80 -118 -103 -149 -55 -24 35 -10 68 51 126 92
87 186 115 192 58 3 -26 7 -28 46 -28 47 0 66 -13 66 -47 0 -13 4 -23 8 -23
17 0 32 25 32 52 0 21 -8 33 -32 48 -18 11 -41 20 -50 20 -10 0 -18 5 -18 10
0 6 -11 22 -25 35 -30 30 -67 32 -120 5 -22 -11 -41 -20 -42 -20 -2 0 -3 26
-3 59 0 52 3 59 22 64 13 4 37 -3 62 -18 23 -13 71 -29 109 -35 58 -11 71 -10
92 4 26 17 32 40 14 51 -6 4 -30 2 -54 -5 -51 -14 -97 -3 -158 38 -33 22 -43
24 -67 15 -24 -9 -32 -8 -46 8 -29 32 -39 8 -25 -57 7 -31 10 -71 7 -89 -7
-37 -37 -68 -57 -60 -14 5 -59 169 -59 212 0 11 19 60 41 107 l41 86 67 19
c122 36 164 38 251 16z m-436 -264 c3 -22 8 -46 11 -53 4 -9 -5 -20 -22 -29
-15 -8 -54 -35 -85 -60 -62 -49 -216 -129 -248 -129 -12 0 -23 7 -26 15 -14
34 7 64 78 111 40 27 87 61 103 76 35 31 155 107 171 108 6 0 14 -18 18 -39z
m50 -196 c14 -14 34 -25 46 -25 11 0 20 -3 20 -8 0 -10 -142 -148 -206 -200
-56 -46 -100 -54 -129 -26 -13 14 -14 19 -3 34 65 87 90 114 161 177 45 39 83
72 84 72 1 1 13 -10 27 -24z"/>
</g>
</svg>
